<svg xmlns="http://www.w3.org/2000/svg" width="512" height="512"><circle cx="301.69" cy="78.7" r="8.157" fill="#5a5a5a"/><circle cx="301.69" cy="99.06" r="8.157" fill="#5a5a5a"/><circle cx="301.69" cy="119.43" r="8.157" fill="#5a5a5a"/><path d="M374.5 71.196h-45.354c-4.143 0-7.5 3.357-7.5 7.5s3.357 7.5 7.5 7.5H374.5c4.143 0 7.5-3.357 7.5-7.5s-3.357-7.5-7.5-7.5zm0 20.367h-45.354c-4.143 0-7.5 3.357-7.5 7.5s3.357 7.5 7.5 7.5H374.5c4.143 0 7.5-3.357 7.5-7.5s-3.357-7.5-7.5-7.5zm0 20.459h-45.354a7.499 7.499 0 0 0-7.5 7.5c0 4.143 3.357 7.5 7.5 7.5H374.5c4.143 0 7.5-3.357 7.5-7.5s-3.357-7.5-7.5-7.5z" fill="#5a5a5a"/><circle cx="142.67" cy="78.7" r="8.157" fill="#5a5a5a"/><circle cx="142.67" cy="99.06" r="8.157" fill="#5a5a5a"/><circle cx="142.67" cy="119.43" r="8.157" fill="#5a5a5a"/><path d="M215.486 71.196h-45.354c-4.143 0-7.5 3.357-7.5 7.5s3.357 7.5 7.5 7.5h45.354c4.143 0 7.5-3.357 7.5-7.5s-3.357-7.5-7.5-7.5zm0 20.367h-45.354c-4.143 0-7.5 3.357-7.5 7.5s3.357 7.5 7.5 7.5h45.354c4.143 0 7.5-3.357 7.5-7.5s-3.357-7.5-7.5-7.5zm0 20.459h-45.354a7.499 7.499 0 0 0-7.5 7.5c0 4.143 3.357 7.5 7.5 7.5h45.354c4.143 0 7.5-3.357 7.5-7.5s-3.357-7.5-7.5-7.5z" fill="#5a5a5a"/><path d="M484.5 378.739c-12.563 0-23.178 8.472-26.452 20h-70.853V347.5h21.774c21.797 0 39.53-17.692 39.53-39.439 0-21.737-17.717-39.422-39.5-39.439V7.5c0-4.143-3.357-7.5-7.5-7.5h-130a7.499 7.499 0 0 0-7.5 7.5v182.584a62.059 62.059 0 0 0-14-5.578V7.5c0-4.143-3.357-7.5-7.5-7.5h-130a7.499 7.499 0 0 0-7.5 7.5v152c0 4.143 3.357 7.5 7.5 7.5s7.5-3.357 7.5-7.5v-3.937h115v26.945c-.167-.001-.333-.008-.5-.008-30.283 0-55.535 21.9-60.675 50.66a45.317 45.317 0 0 0-18.343-3.872c-14.365 0-27.182 6.715-35.482 17.158V192c0-4.143-3.357-7.5-7.5-7.5a7.499 7.499 0 0 0-7.5 7.5v76.673a39.576 39.576 0 0 0-1.979-.052c-21.792 0-39.521 17.692-39.521 39.439s17.73 39.44 39.522 39.44h21.784v51.239H53.952c-3.274-11.528-13.889-20-26.452-20-15.163 0-27.5 12.337-27.5 27.5s12.337 27.5 27.5 27.5c12.563 0 23.178-8.472 26.452-20h78.353c4.143 0 7.5-3.357 7.5-7.5V347.5H172v4.333c0 4.143 3.357 7.5 7.5 7.5s7.5-3.357 7.5-7.5V347.5h61.5v71.048c-11.528 3.274-20 13.889-20 26.452 0 15.163 12.337 27.5 27.5 27.5s27.5-12.337 27.5-27.5c0-12.563-8.472-23.178-20-26.452V347.5H325v110.548c-11.528 3.274-20 13.889-20 26.452 0 15.163 12.337 27.5 27.5 27.5s27.5-12.337 27.5-27.5c0-12.563-8.472-23.178-20-26.452V347.5h32.195v58.739c0 4.143 3.357 7.5 7.5 7.5h78.353c3.274 11.528 13.889 20 26.452 20 15.163 0 27.5-12.337 27.5-27.5s-12.337-27.5-27.5-27.5zm-457 40c-6.893 0-12.5-5.607-12.5-12.5s5.607-12.5 12.5-12.5 12.5 5.607 12.5 12.5-5.607 12.5-12.5 12.5zM279 15h115v27.563H279V15zm-.001 140.564h72.823c4.143 0 7.5-3.357 7.5-7.5s-3.357-7.5-7.5-7.5H279v-83h115v83h-9.833c-4.143 0-7.5 3.357-7.5 7.5s3.357 7.5 7.5 7.5H394v113.03c-4.953-13.212-17.732-22.644-32.677-22.644-.72 0-1.436.021-2.147.064a44.34 44.34 0 0 0 .047-2.032c0-23.994-19.563-43.514-43.608-43.514-10.844 0-21.034 3.938-28.892 10.894a61.521 61.521 0 0 0-7.724-9.828v-45.97zM120 15h115v27.563H120V15zm0 125.563v-83h115v83H120zM268.5 445c0 6.893-5.607 12.5-12.5 12.5s-12.5-5.607-12.5-12.5 5.607-12.5 12.5-12.5 12.5 5.607 12.5 12.5zm76.5 39.5c0 6.893-5.607 12.5-12.5 12.5s-12.5-5.607-12.5-12.5 5.607-12.5 12.5-12.5 12.5 5.607 12.5 12.5zm-241.979-152C89.5 332.5 78.5 321.536 78.5 308.061c0-13.476 11-24.439 24.521-24.439a24.5 24.5 0 0 1 11.535 2.879 7.499 7.499 0 0 0 10.962-7.698 30.057 30.057 0 0 1-.311-4.336c0-16.641 13.581-30.179 30.275-30.179 7.372 0 14.47 2.671 19.985 7.52.006.006.014.01.02.015a30.16 30.16 0 0 1 10.263 22.643c0 7.36-2.688 14.449-7.567 19.959a7.499 7.499 0 0 0 .642 10.587 7.47 7.47 0 0 0 4.97 1.886 7.481 7.481 0 0 0 5.617-2.527 45.06 45.06 0 0 0 11.339-29.904c0-11.813-4.655-23.107-12.856-31.512.553-25.156 21.239-45.454 46.605-45.454 18.074 0 34.637 10.64 42.241 26.798a43.351 43.351 0 0 0-4.737 19.688c0 14.887 7.502 28.583 20.067 36.638a7.496 7.496 0 0 0 10.362-2.266 7.501 7.501 0 0 0-2.267-10.362c-8.242-5.283-13.163-14.258-13.163-24.009a28.35 28.35 0 0 1 4.401-15.204l.011-.016c5.279-8.327 14.325-13.298 24.198-13.298 15.774 0 28.607 12.792 28.607 28.515 0 3.289-.553 6.505-1.643 9.556a7.501 7.501 0 0 0 10.271 9.302 19.648 19.648 0 0 1 8.472-1.89c10.959 0 19.875 8.885 19.875 19.806 0 .689-.031 1.344-.092 1.944a7.5 7.5 0 0 0 12.246 6.532 24.53 24.53 0 0 1 15.617-5.611c13.526 0 24.53 10.964 24.53 24.439s-11 24.437-24.526 24.437H103.021zM484.5 418.739c-6.893 0-12.5-5.607-12.5-12.5s5.607-12.5 12.5-12.5 12.5 5.607 12.5 12.5-5.607 12.5-12.5 12.5z" fill="#5a5a5a"/><path d="M187 458.048v-74.215c0-4.143-3.357-7.5-7.5-7.5s-7.5 3.357-7.5 7.5v74.215c-11.528 3.274-20 13.889-20 26.452 0 15.163 12.337 27.5 27.5 27.5s27.5-12.337 27.5-27.5c0-12.563-8.472-23.178-20-26.452zM179.5 497c-6.893 0-12.5-5.607-12.5-12.5s5.607-12.5 12.5-12.5 12.5 5.607 12.5 12.5-5.607 12.5-12.5 12.5z" fill="#5a5a5a"/></svg>