<svg xmlns="http://www.w3.org/2000/svg" viewBox="0 0 480 480" width="512" height="512"><path fill="#5a5a5a" d="M136 408.009h16v16h-16zm0-192h16v16h-16zm32 0h16v16h-16zm0 192h16v16h-16z"/><path d="M376 120.009c-4.629.002-9.252.312-13.84.928-21.557-71.918-97.334-112.744-169.253-91.186-54.84 16.438-93.505 65.473-96.699 122.635A90.484 90.484 0 0 0 88 152.01c-48.601 0-88 39.399-88 88s39.399 88 88 88h4.304l12.416 27.312a8 8 0 0 0 7.28 4.688h16v16h-16a8 8 0 0 0-8 8v64a8 8 0 0 0 8 8h256a8 8 0 0 0 8-8v-64a8 8 0 0 0-8-8h-16v-16h16a7.873 7.873 0 0 0 7.945-7.799c.001-.067 0-.134-.001-.201H376v-24c57.438 0 104-46.562 104-104s-46.562-104.001-104-104.001zm-16 272v48H120v-48h240zm-216-16v-16h192v16H144zm-26.848-32l-32.728-72h238.4l32.728 72h-238.4zM360 315.081l-24.72-54.4a8 8 0 0 0-7.28-4.672H120v-56h68.688l29.656 29.656a8 8 0 0 0 5.656 2.344h136v83.072zm34.077-4.944A87.984 87.984 0 0 1 376 312.009v-88a8 8 0 0 0-8-8H227.312l-29.656-29.656a8 8 0 0 0-5.656-2.344h-80a8 8 0 0 0-8 8v64H72a8 8 0 0 0-7.28 11.312l20.24 44.536c-39.704-1.74-70.481-35.337-68.741-75.041 1.74-39.704 35.337-70.481 75.041-68.741 3.773.165 7.527.627 11.228 1.382a7.999 7.999 0 0 0 9.6-7.84c0-.464 0-.928-.08-1.6-.021-66.239 53.659-119.953 119.897-119.975 55.445-.018 103.676 37.972 116.647 91.879a7.999 7.999 0 0 0 9.416 5.96c47.567-9.971 94.211 20.506 104.183 68.073s-20.506 94.212-68.074 104.183z" fill="#5a5a5a"/></svg>