<svg xmlns="http://www.w3.org/2000/svg" viewBox="0 0 480 480" width="512" height="512"><path fill="#FFF" d="M136 408.009h16v16h-16zm32 0h16v16h-16zm-32-96h16v16h-16zm32 0h16v16h-16z"/><path d="M376 120.009c-4.629.002-9.252.312-13.84.928-21.558-71.918-97.336-112.743-169.254-91.185C138.064 46.191 99.4 95.229 96.208 152.393a87.93 87.93 0 0 0-8.208-.384c-48.601 0-88 39.399-88 88s39.399 88 88 88h16v24a8 8 0 0 0 8 8h16v16h-16a8 8 0 0 0-8 8v64a8 8 0 0 0 8 8h256a8 8 0 0 0 8-8v-64a8 8 0 0 0-8-8h-16v-16h16a8 8 0 0 0 8-8v-24c57.438 0 104-46.562 104-104s-46.562-104-104-104zm-16 272v48H120v-48h240zm-216-16v-16h192v16H144zm216-32H120v-48h240v48zm33.993-33.864A88.011 88.011 0 0 1 376 312.009v-24a8 8 0 0 0-8-8h-80v-72h73.472c4.418 12.497 18.131 19.046 30.627 14.627 12.497-4.418 19.046-18.131 14.627-30.627-4.418-12.497-18.131-19.046-30.627-14.627a23.998 23.998 0 0 0-14.627 14.627H280a8 8 0 0 0-8 8v80h-40v-152h33.472c4.418 12.497 18.131 19.046 30.627 14.627 12.497-4.418 19.046-18.131 14.627-30.627-4.418-12.497-18.131-19.046-30.627-14.627a23.998 23.998 0 0 0-14.627 14.627H224a8 8 0 0 0-8 8v160h-40v-56a8 8 0 0 0-8-8h-41.472c-4.418-12.497-18.131-19.046-30.627-14.627s-19.046 18.131-14.627 30.627 18.131 19.046 30.627 14.627a23.998 23.998 0 0 0 14.627-14.627H160v48h-48a8 8 0 0 0-8 8v24H88c-39.765 0-72-32.236-72-72 0-39.765 32.235-72 72-72 4.869.004 9.725.494 14.496 1.464a8.105 8.105 0 0 0 6.696-1.688 7.998 7.998 0 0 0 2.888-6.272c0-.16-.072-1.344-.08-1.504-.044-66.239 53.617-119.972 119.856-120.016 55.474-.037 103.734 37.974 116.696 91.912a8 8 0 0 0 9.408 5.968c47.572-9.95 94.202 20.548 104.152 68.12s-20.548 94.202-68.119 104.152zM376 200.009a8 8 0 1 1 16 0 8 8 0 0 1-16 0zm-96-80a8 8 0 1 1 16 0 8 8 0 0 1-16 0zm-168 104a8 8 0 1 1-16 0 8 8 0 0 1 16 0z" fill="#FFF"/></svg>